PathFileType	4	(X/Y/Z)	s06c0301.trc
DataRate	CameraRate	NumFrames	NumMarkers	Units	OrigDataRate	OrigDataStartFrame	OrigNumFrames
200	200	6	48	mm	200	1250	2000
Frame#	Time	racr			lacr			c7			jug			rlel			rdr			llel			ldr			s2			lic			ric			lasi			rasi			rpsi			lpsi			rgt			lgt			rth1			rth2			rth3			rth4			rlfc			rmfc			rsh1			rsh2			rsh3			rsh4			rlmal			rcal			rtoe			rmt5			lth1			lth2			lth4			lth3			llfc			lmfc			llmal			lcal			lmt5			lsh1			lsh2			lsh3			lsh4			ltoe			SBIKE			LBIKE			RBIKE			
		X1	Y1	Z1	X2	Y2	Z2	X3	Y3	Z3	X4	Y4	Z4	X5	Y5	Z5	X6	Y6	Z6	X7	Y7	Z7	X8	Y8	Z8	X9	Y9	Z9	X10	Y10	Z10	X11	Y11	Z11	X12	Y12	Z12	X13	Y13	Z13	X14	Y14	Z14	X15	Y15	Z15	X16	Y16	Z16	X17	Y17	Z17	X18	Y18	Z18	X19	Y19	Z19	X20	Y20	Z20	X21	Y21	Z21	X22	Y22	Z22	X23	Y23	Z23	X24	Y24	Z24	X25	Y25	Z25	X26	Y26	Z26	X27	Y27	Z27	X28	Y28	Z28	X29	Y29	Z29	X30	Y30	Z30	X31	Y31	Z31	X32	Y32	Z32	X33	Y33	Z33	X34	Y34	Z34	X35	Y35	Z35	X36	Y36	Z36	X37	Y37	Z37	X38	Y38	Z38	X39	Y39	Z39	X40	Y40	Z40	X41	Y41	Z41	X42	Y42	Z42	X43	Y43	Z43	X44	Y44	Z44	X45	Y45	Z45	X46	Y46	Z46	X47	Y47	Z47	X48	Y48	Z48	
1250	6.2500	776.776218	1222.665151	-100.914587	765.555568	1221.811951	-402.029607	796.649030	1283.422892	-256.819095	717.023021	1130.587707	-239.980190	609.433708	1077.582609	63.734921	723.638093	922.269165	-48.592028	569.456020	1069.435243	-514.323591	711.675786	938.514352	-419.609182	214.525403	1244.121570	-166.571617	335.823123	1209.594642	-371.356037	368.508191	1140.938788	-45.875211	352.900436	1158.700874	-349.515441	379.913038	1100.420969	-88.087168	262.033307	1265.430592	-147.054367	247.413085	1277.640371	-206.481160	296.371711	1062.082399	-30.747590	314.186623	1181.918461	-394.456206	323.044841	937.429173	-23.728999	345.304535	850.527841	-35.969444	322.293779	767.506801	-44.188400	379.978749	852.765716	-48.703027	305.993113	658.875738	-56.482291	286.551010	638.452408	-167.024664	252.876939	551.781673	-30.010631	234.939131	468.614531	-48.975940	179.226145	400.657085	-50.479712	253.984585	462.651199	-84.947686	133.045967	334.390714	-57.586340	82.292456	365.695982	-104.442476	187.321354	108.343377	-97.819621	127.311602	189.281708	-32.844922	358.490154	1080.075468	-426.796496	433.411438	1035.674848	-426.627130	458.388966	1057.040244	-406.860291	477.377268	957.936365	-435.713028	524.169089	842.705163	-410.463659	530.997340	828.098192	-292.944697	272.145004	555.469620	-386.150490	190.862533	550.067063	-337.225697	360.971565	449.380067	-409.959264	455.064391	751.975598	-427.589590	415.138551	677.406295	-406.600138	340.537964	628.550600	-401.879471	437.542661	664.192037	-376.976046	444.184803	428.450706	-350.476266	-203.418220	868.055700	-216.172337	-50.049238	80.448439	-415.410723	-49.511158	80.537667	-18.155264	
1251	6.2550	776.126625	1221.400292	-99.820076	764.414052	1220.896242	-402.059417	796.486489	1282.567007	-256.128533	715.639254	1130.301149	-240.034031	608.329687	1077.268431	64.769223	723.203654	922.160060	-47.977929	566.399533	1068.602904	-512.159281	710.585755	938.799073	-418.914465	214.296113	1246.437238	-167.003901	335.387914	1210.758837	-371.774786	366.268997	1143.330438	-45.714524	351.877662	1159.179500	-349.624465	377.961047	1102.927577	-87.629810	261.648546	1267.861690	-147.827185	247.326845	1279.508278	-207.477751	296.773355	1064.833465	-30.331111	311.817607	1182.109762	-395.569813	326.577932	939.112604	-25.094034	351.301390	852.911142	-37.942162	330.536383	769.219071	-46.485882	385.967357	856.362514	-50.628130	315.969609	660.795705	-59.092173	294.362886	642.608496	-169.271062	259.439273	555.961791	-31.773189	236.876678	473.273223	-52.147828	179.756519	407.856391	-51.277608	256.303879	466.688916	-87.112486	130.124585	342.411810	-58.077267	79.313165	374.505792	-104.712789	178.384339	114.491340	-97.748570	120.335226	197.169873	-32.947104	354.405164	1078.368009	-427.366202	428.823949	1032.864732	-427.628186	454.240036	1054.270074	-408.961683	471.476522	954.535724	-436.013465	516.980380	838.479609	-411.455871	524.031029	823.422735	-294.423851	273.885877	544.336276	-385.693076	193.309657	536.432355	-335.625062	366.095148	441.929348	-410.712257	450.421038	745.849229	-428.335695	413.029364	670.161578	-407.028561	339.907549	619.119946	-401.626654	435.949171	657.625217	-377.472433	450.735095	423.940949	-352.172301	-203.417187	868.121016	-216.405284	-50.105974	80.454959	-415.449225	-49.632322	80.880831	-17.971487	
1252	6.2600	775.385770	1220.418749	-98.402577	763.355191	1219.807556	-402.485264	796.429740	1281.680573	-255.548903	714.095673	1130.178424	-239.846437	607.289030	1076.953411	65.816785	722.623103	922.060805	-47.715242	563.118995	1067.708986	-509.928470	709.362448	939.058003	-418.199072	213.982181	1248.291254	-168.309875	335.055134	1211.460168	-372.202859	364.414359	1145.950838	-45.075169	350.861789	1159.329840	-349.689439	376.586106	1105.617234	-86.590448	261.079763	1270.141813	-148.681409	247.142019	1280.968642	-208.457488	297.153339	1067.643319	-29.559756	308.732006	1181.233645	-395.811439	329.701972	940.867924	-26.442230	357.193467	855.316901	-39.621328	338.944171	770.973132	-48.365383	391.581635	859.858305	-52.504675	325.894421	663.147644	-61.729365	302.606647	646.869832	-172.084812	265.933004	559.907040	-33.536303	239.828004	478.254577	-53.625753	180.130342	415.038944	-52.045450	258.584765	470.805817	-88.759613	127.483332	350.419985	-58.482361	75.868758	384.724273	-103.923691	170.127185	121.209826	-97.689760	113.783906	205.114280	-33.148535	350.081449	1076.081191	-427.613378	423.660430	1029.501180	-428.913891	449.867880	1051.219275	-412.141378	465.060914	950.473403	-436.823344	509.382070	833.857951	-412.740489	516.665666	817.938586	-295.852641	275.928055	532.903309	-384.965955	195.864983	522.807817	-334.398455	371.325955	434.058082	-410.984017	445.553698	739.356777	-428.799359	410.729495	662.492667	-407.193024	340.089874	608.817092	-400.103427	434.529255	650.482559	-377.929935	456.896061	418.532073	-352.990967	-203.330173	868.169946	-216.635164	-50.156801	80.437583	-415.486298	-49.696440	80.905213	-18.024069	
1253	6.2650	774.363571	1219.423886	-97.178416	762.370189	1218.438502	-403.244308	796.462339	1280.804608	-255.044078	712.421950	1130.183202	-239.964654	606.966743	1076.366232	66.894093	721.990345	921.875384	-47.618977	559.782777	1066.768153	-507.857451	708.180506	939.036602	-417.567262	216.221956	1248.293693	-171.524021	334.699336	1211.702461	-372.636220	362.792380	1148.176255	-44.288308	349.855819	1159.139799	-349.699197	375.457900	1107.664518	-85.147189	261.357269	1271.199423	-149.953273	246.830324	1282.008473	-209.413299	297.668676	1069.920564	-28.070444	305.910703	1180.183733	-396.469547	333.755376	942.441663	-27.580668	363.071942	857.925034	-41.014462	347.222456	773.173385	-49.996705	396.758188	863.356288	-54.699475	335.469679	665.801351	-64.083824	310.848966	650.925286	-174.731799	272.126320	563.542081	-35.140154	242.584636	483.442859	-54.655246	180.511179	422.128075	-52.556178	260.700984	474.864758	-90.269487	124.911225	358.345234	-58.846395	74.605344	392.588693	-105.142933	162.359334	128.293248	-97.762297	107.995773	213.450228	-33.339335	345.534784	1073.286958	-427.821561	418.337019	1025.511986	-430.214816	445.182111	1046.856639	-413.948669	457.896154	945.538173	-437.397808	501.669154	828.819706	-414.111317	509.185872	811.981165	-297.342039	278.184235	521.490402	-384.072957	199.132520	508.890282	-333.276520	376.193136	425.702270	-411.596308	440.649757	732.440922	-429.341266	408.501499	654.526887	-407.380958	339.654486	598.681768	-399.600644	432.960446	643.315123	-378.357299	462.502363	412.192921	-353.735465	-203.239210	868.224268	-216.814975	-50.144938	80.491204	-415.582898	-49.703784	81.034882	-18.091594	
1254	6.2700	773.256839	1218.470262	-96.028228	761.467057	1216.645562	-404.248846	796.467541	1279.878223	-254.599738	710.954655	1130.031014	-240.129263	605.164841	1076.093632	67.671879	721.557356	921.913322	-47.441610	556.577768	1065.482226	-505.654731	707.162766	939.010949	-416.975410	216.325793	1249.289596	-172.346213	334.339807	1211.355840	-373.074110	361.385480	1150.025962	-43.703135	348.862720	1158.597164	-349.642415	374.766029	1109.689102	-84.171116	261.094025	1272.479244	-150.921153	246.532099	1282.504204	-210.192448	298.942537	1071.823237	-27.462413	303.249279	1178.752140	-396.908597	337.245826	944.157665	-28.923895	368.406610	860.561974	-42.803567	355.141720	775.314427	-51.454726	402.641694	867.050042	-55.272322	344.370092	668.690606	-66.317039	318.879169	654.705010	-177.166202	277.827768	567.022699	-36.546576	245.123662	488.153311	-55.902150	180.958515	428.990311	-53.111582	262.468779	478.885074	-91.700372	122.774772	366.370853	-59.168723	72.855152	401.691942	-105.399983	155.449106	135.829690	-97.787308	102.681153	222.116776	-33.468396	340.810543	1070.160804	-427.994805	412.649029	1020.963590	-431.479453	440.343726	1042.550034	-417.434951	450.229632	940.298951	-438.929297	493.866492	823.319671	-415.301971	502.057156	805.571024	-298.731610	280.706290	509.822037	-383.224470	202.107102	495.659597	-332.074585	380.524431	416.544688	-411.880065	435.754053	725.071845	-429.952575	406.211411	646.099450	-407.555622	339.268803	588.229349	-399.135602	431.304684	635.784674	-378.482535	467.442901	404.911544	-354.536410	-203.135775	868.170569	-217.005676	-50.136737	80.309230	-415.545894	-49.672383	80.942366	-18.082003	
1255	6.2750	772.110362	1217.595266	-95.032509	760.681989	1214.403049	-405.216165	796.423438	1279.056412	-254.147371	709.914057	1129.715196	-240.407270	605.359599	1075.496340	68.379257	719.677160	921.774576	-46.375602	553.545021	1063.916279	-503.415038	706.236508	938.988151	-416.528878	215.965305	1250.161830	-172.462036	333.764957	1210.515355	-373.436926	360.182777	1151.514000	-43.307226	347.885524	1157.689476	-349.507922	373.769493	1111.095571	-83.286176	260.679932	1273.042656	-151.683035	246.137340	1282.747862	-210.791537	300.044810	1073.613039	-26.082694	300.741312	1176.832203	-397.281864	340.921044	945.803392	-29.681795	374.447055	863.213376	-43.405699	362.376324	777.545316	-53.020375	407.251326	870.324910	-57.668077	352.134471	671.529570	-68.496136	326.568723	657.990339	-179.175910	282.852178	570.379683	-37.926710	248.446959	493.174154	-56.270924	181.477133	435.629643	-53.721238	264.499533	483.097933	-92.887701	120.829690	374.676796	-59.408162	71.256440	410.991607	-105.530687	149.184080	143.665697	-97.829981	97.903135	230.944453	-33.597922	336.083417	1066.528780	-428.181209	406.825260	1015.910634	-432.580532	434.538896	1038.654177	-421.138812	442.758519	934.383209	-439.358036	485.965971	817.353081	-416.444849	495.733518	799.743785	-299.669850	283.134221	497.940422	-382.806948	205.015649	482.349121	-331.429060	384.721901	407.014242	-411.930039	430.699549	717.344033	-430.656930	403.922943	637.670959	-407.935733	338.867133	577.824941	-398.876643	429.505887	628.227177	-378.998291	471.920509	397.045975	-354.707160	-203.017346	867.958343	-217.024296	-50.098857	80.191793	-415.551721	-49.585805	80.526343	-18.300116	
